<svg width="90" height="71" viewBox="0 0 90 71" fill="none" xmlns="http://www.w3.org/2000/svg">
<path d="M65 25.0815C65 11.2315 50.4531 0.0135803 32.5 0.0135803C14.5469 0.0135803 0 11.2315 0 25.0815C0 30.4555 2.20312 35.4064 5.9375 39.4956C3.84375 44.2271 0.390625 47.9873 0.34375 48.0343C0 48.3947 -0.09375 48.9274 0.109375 49.3974C0.3125 49.8674 0.75 50.1495 1.25 50.1495C6.96875 50.1495 11.7031 48.2224 15.1094 46.2326C20.1406 48.6924 26.0938 50.1495 32.5 50.1495C50.4531 50.1495 65 38.9315 65 25.0815ZM84.0625 59.5499C87.7969 55.4764 90 50.5098 90 45.1359C90 34.6543 81.6406 25.6769 69.7969 21.9324C69.9375 22.9664 70 24.0161 70 25.0815C70 41.6734 53.1719 55.163 32.5 55.163C30.8125 55.163 29.1719 55.0377 27.5469 54.8654C32.4688 63.8741 44.0312 70.2038 57.5 70.2038C63.9062 70.2038 69.8594 68.7624 74.8906 66.2869C78.2969 68.2767 83.0312 70.2038 88.75 70.2038C89.25 70.2038 89.7031 69.9061 89.8906 69.4518C90.0938 68.9974 90 68.4647 89.6562 68.0887C89.6094 68.0417 86.1562 64.2972 84.0625 59.5499Z" fill="black"/>
</svg>
