<svg width="90" height="70" viewBox="0 0 90 70" fill="none" xmlns="http://www.w3.org/2000/svg">
<path d="M82.5 0H7.5C3.35938 0 0 3.35938 0 7.5V62.5C0 66.6406 3.35938 70 7.5 70H82.5C86.6406 70 90 66.6406 90 62.5V7.5C90 3.35938 86.6406 0 82.5 0ZM27.5 15C33.0156 15 37.5 19.4844 37.5 25C37.5 30.5156 33.0156 35 27.5 35C21.9844 35 17.5 30.5156 17.5 25C17.5 19.4844 21.9844 15 27.5 15ZM45 52C45 53.6562 43.4375 55 41.5 55H13.5C11.5625 55 10 53.6562 10 52V49C10 44.0312 14.7031 40 20.5 40H21.2812C23.2031 40.7969 25.2969 41.25 27.5 41.25C29.7031 41.25 31.8125 40.7969 33.7188 40H34.5C40.2969 40 45 44.0312 45 49V52ZM80 43.75C80 44.4375 79.4375 45 78.75 45H56.25C55.5625 45 55 44.4375 55 43.75V41.25C55 40.5625 55.5625 40 56.25 40H78.75C79.4375 40 80 40.5625 80 41.25V43.75ZM80 33.75C80 34.4375 79.4375 35 78.75 35H56.25C55.5625 35 55 34.4375 55 33.75V31.25C55 30.5625 55.5625 30 56.25 30H78.75C79.4375 30 80 30.5625 80 31.25V33.75ZM80 23.75C80 24.4375 79.4375 25 78.75 25H56.25C55.5625 25 55 24.4375 55 23.75V21.25C55 20.5625 55.5625 20 56.25 20H78.75C79.4375 20 80 20.5625 80 21.25V23.75Z" fill="black"/>
</svg>
