<svg width="90" height="64" viewBox="0 0 90 64" fill="none" xmlns="http://www.w3.org/2000/svg">
<path d="M27 50.2046H54C61.4532 50.2046 67.5 44.1348 67.5 36.6534H72C81.9282 36.6534 90 28.551 90 18.5852C90 8.61951 81.9282 0.517059 72 0.517059H16.8751C15.0047 0.517059 13.5001 2.02745 13.5001 3.90484V36.6534C13.5001 44.1348 19.5469 50.2046 27 50.2046ZM72 9.55115C76.9641 9.55115 81 13.6024 81 18.5852C81 23.5681 76.9641 27.6193 72 27.6193H67.5V9.55115H72ZM78.7079 63.7557H6.79224C0.0984883 63.7557 -1.78589 54.7216 1.72974 54.7216H83.7563C87.2719 54.7216 85.4157 63.7557 78.7079 63.7557Z" fill="black"/>
</svg>
